<svg xmlns="http://www.w3.org/2000/svg" viewBox="0 0 132.83 25.81"><defs><style>.a{fill:#ebd6ba;}</style></defs><title>SHOWS</title><path class="a" d="M15.07,9.75a2.72,2.72,0,0,0-.4-1.07,3.18,3.18,0,0,0-.81-0.87A4.11,4.11,0,0,0,11.44,7a4.88,4.88,0,0,0-1.15.13,2.87,2.87,0,0,0-.93.4,2,2,0,0,0-.63.69,2,2,0,0,0-.23,1,1.91,1.91,0,0,0,.32,1.16,2.51,2.51,0,0,0,.81.71,4.82,4.82,0,0,0,1.09.44q0.6,0.16,1.17.36l4.46,1.49a7.15,7.15,0,0,1,1.73.89,6,6,0,0,1,1.4,1.38,6.57,6.57,0,0,1,.93,1.86,7.68,7.68,0,0,1,.34,2.37,7.92,7.92,0,0,1-.66,3.26,7.34,7.34,0,0,1-1.84,2.53,8.42,8.42,0,0,1-2.84,1.64,11,11,0,0,1-3.66.58,10.92,10.92,0,0,1-2.67-.32,8.9,8.9,0,0,1-2.29-.92A7.79,7.79,0,0,1,5,25.24a6.28,6.28,0,0,1-1.22-1.89H2.08V18.47H8v1a3.74,3.74,0,0,0,.23,1.35,2.91,2.91,0,0,0,.71,1.07,3.2,3.2,0,0,0,1.18.71,5,5,0,0,0,1.67.25A3.26,3.26,0,0,0,14,22.17a2.37,2.37,0,0,0,.76-1.87,1.86,1.86,0,0,0-.27-1,2.41,2.41,0,0,0-.69-0.7,4.55,4.55,0,0,0-.94-0.48l-1-.36L8.1,16.54a9.36,9.36,0,0,1-2-.91,7,7,0,0,1-1.73-1.46,6.8,6.8,0,0,1-1.2-2.05,7.53,7.53,0,0,1-.45-2.68,7.21,7.21,0,0,1,.65-3.12A6.49,6.49,0,0,1,5.15,4,8.11,8.11,0,0,1,7.92,2.58a12.09,12.09,0,0,1,3.52-.49,10.59,10.59,0,0,1,2.79.35,9.66,9.66,0,0,1,2.29.93,7.37,7.37,0,0,1,1.72,1.34,5.94,5.94,0,0,1,1.08,1.56h1.62v4.9H15.07V9.75Z" transform="translate(-2.08 -2.09)"/><path class="a" d="M39.89,2.82H50.43V7.28H47.84V23h2.59V27.4H39.89V23h2.56V16.67H31.36V23H34V27.4H23.44V23H26V7.28H23.44V2.82H34V7.28H31.36v5.11H42.45V7.28H39.89V2.82Z" transform="translate(-2.08 -2.09)"/><path class="a" d="M64.54,27.84a11.14,11.14,0,0,1-3.19-.45,11.55,11.55,0,0,1-2.85-1.28,11.85,11.85,0,0,1-2.4-2,12.32,12.32,0,0,1-1.84-2.58,13.63,13.63,0,0,1-1.18-3,13.85,13.85,0,0,1,0-6.78,13.6,13.6,0,0,1,1.18-3A12.34,12.34,0,0,1,56.1,6.09a11.86,11.86,0,0,1,2.4-2,11.55,11.55,0,0,1,2.85-1.28,11.49,11.49,0,0,1,6.4,0,11.53,11.53,0,0,1,2.85,1.28,11.88,11.88,0,0,1,2.4,2,12.59,12.59,0,0,1,1.85,2.58,13.59,13.59,0,0,1,0,12.87A12.58,12.58,0,0,1,73,24.12a11.86,11.86,0,0,1-2.4,2,11.53,11.53,0,0,1-2.85,1.28A11.23,11.23,0,0,1,64.54,27.84Zm0-5.09a5.54,5.54,0,0,0,2.59-.61,6.26,6.26,0,0,0,2-1.65,7.73,7.73,0,0,0,1.31-2.43,9.6,9.6,0,0,0,0-5.91,7.74,7.74,0,0,0-1.32-2.44,6.38,6.38,0,0,0-2-1.65,5.7,5.7,0,0,0-5.12,0,6.29,6.29,0,0,0-2,1.65,8,8,0,0,0-1.32,2.44,9.08,9.08,0,0,0-.48,3,9,9,0,0,0,.48,2.94A8,8,0,0,0,60,20.49a6.29,6.29,0,0,0,2,1.65A5.46,5.46,0,0,0,64.54,22.75Z" transform="translate(-2.08 -2.09)"/><path class="a" d="M104.55,2.82h10.52V7.28h-2.22L107.19,27.4h-7L96.48,12.07,92.68,27.4H85.74L80,7.28H77.51V2.82H88V7.28H85.48L89.1,20.53,93.46,2.87h6l4.28,17.66L107.4,7.28h-2.85V2.82Z" transform="translate(-2.08 -2.09)"/><path class="a" d="M129,9.75a2.72,2.72,0,0,0-.4-1.07,3.19,3.19,0,0,0-.81-0.87A4.11,4.11,0,0,0,125.42,7a4.88,4.88,0,0,0-1.15.13,2.88,2.88,0,0,0-.93.4,2,2,0,0,0-.63.69,2,2,0,0,0-.24,1,1.91,1.91,0,0,0,.32,1.16,2.5,2.5,0,0,0,.81.71,4.82,4.82,0,0,0,1.09.44q0.6,0.16,1.17.36l4.46,1.49a7.16,7.16,0,0,1,1.74.89,6,6,0,0,1,1.4,1.38,6.54,6.54,0,0,1,.93,1.86,7.66,7.66,0,0,1,.34,2.37,7.93,7.93,0,0,1-.66,3.26,7.35,7.35,0,0,1-1.84,2.53,8.42,8.42,0,0,1-2.84,1.64,11.63,11.63,0,0,1-6.33.27,8.89,8.89,0,0,1-2.29-.92,7.79,7.79,0,0,1-1.82-1.44,6.25,6.25,0,0,1-1.22-1.89h-1.67V18.47h5.87v1a3.76,3.76,0,0,0,.24,1.35,2.91,2.91,0,0,0,.71,1.07,3.21,3.21,0,0,0,1.18.71,5,5,0,0,0,1.67.25,3.26,3.26,0,0,0,2.22-.67,2.37,2.37,0,0,0,.76-1.87,1.85,1.85,0,0,0-.27-1,2.42,2.42,0,0,0-.69-0.7,4.54,4.54,0,0,0-.94-0.48l-1-.36-3.71-1.2a9.37,9.37,0,0,1-2-.91,7,7,0,0,1-1.73-1.46,6.82,6.82,0,0,1-1.2-2.05,7.54,7.54,0,0,1-.45-2.68,7.21,7.21,0,0,1,.65-3.12A6.5,6.5,0,0,1,119.12,4a8.12,8.12,0,0,1,2.77-1.43,12.09,12.09,0,0,1,3.52-.49,10.59,10.59,0,0,1,2.79.35,9.65,9.65,0,0,1,2.29.93,7.35,7.35,0,0,1,1.72,1.34,5.94,5.94,0,0,1,1.08,1.56h1.62v4.9H129V9.75Z" transform="translate(-2.08 -2.09)"/></svg>